<svg width="139" height="44" viewBox="0 0 139 44" fill="none" xmlns="http://www.w3.org/2000/svg">
<path d="M45.5946 11.7H59.5446V13.11H53.2746V33H51.8046V13.11H45.5946V11.7ZM61.177 33L70.177 10.77H70.297L79.297 33H77.647L69.817 13.11L70.837 12.54L62.647 33H61.177ZM65.527 24.57H74.977L75.397 25.95H65.167L65.527 24.57ZM84.2186 33V11.22H84.2486L94.7486 26.13L94.1186 26.04L104.589 11.22H104.619V33H103.179V14.61L103.299 15.33L94.4186 27.84H94.3586L85.4186 15.33L85.6586 14.67V33H84.2186ZM111.406 11.7H112.876V33H111.406V11.7ZM130.318 14.1C129.698 13.8 128.938 13.52 128.038 13.26C127.138 13 126.238 12.87 125.338 12.87C123.938 12.87 122.818 13.22 121.978 13.92C121.138 14.62 120.718 15.5 120.718 16.56C120.718 17.36 120.958 18.03 121.438 18.57C121.918 19.09 122.548 19.54 123.328 19.92C124.108 20.28 124.938 20.63 125.818 20.97C126.518 21.23 127.208 21.52 127.888 21.84C128.588 22.16 129.218 22.55 129.778 23.01C130.338 23.47 130.778 24.04 131.098 24.72C131.438 25.4 131.608 26.24 131.608 27.24C131.608 28.42 131.328 29.47 130.768 30.39C130.208 31.29 129.428 31.99 128.428 32.49C127.428 32.99 126.268 33.24 124.948 33.24C123.888 33.24 122.918 33.11 122.038 32.85C121.178 32.59 120.418 32.29 119.758 31.95C119.118 31.59 118.608 31.29 118.228 31.05L118.918 29.85C119.358 30.17 119.888 30.49 120.508 30.81C121.148 31.13 121.838 31.4 122.578 31.62C123.318 31.84 124.058 31.95 124.798 31.95C125.658 31.95 126.488 31.78 127.288 31.44C128.108 31.1 128.778 30.59 129.298 29.91C129.838 29.21 130.108 28.33 130.108 27.27C130.108 26.25 129.858 25.43 129.358 24.81C128.858 24.17 128.218 23.65 127.438 23.25C126.658 22.85 125.828 22.49 124.948 22.17C124.268 21.91 123.588 21.64 122.908 21.36C122.228 21.06 121.608 20.71 121.048 20.31C120.488 19.89 120.038 19.39 119.698 18.81C119.378 18.23 119.218 17.53 119.218 16.71C119.218 15.69 119.478 14.8 119.998 14.04C120.518 13.28 121.218 12.69 122.098 12.27C122.998 11.83 124.018 11.6 125.158 11.58C126.158 11.58 127.168 11.71 128.188 11.97C129.228 12.23 130.128 12.56 130.888 12.96L130.318 14.1Z" fill="white"/>
<path d="M8 11.7603C9.77 11.0203 12.308 10.2223 14.776 9.97427C17.436 9.70627 19.692 10.1003 21 11.4783V30.9703C19.13 29.9103 16.76 29.7643 14.574 29.9843C12.214 30.2243 9.834 30.9063 8 31.6063V11.7603ZM23 11.4783C24.308 10.1003 26.564 9.70627 29.224 9.97427C31.692 10.2223 34.23 11.0203 36 11.7603V31.6063C34.164 30.9063 31.786 30.2223 29.426 29.9863C27.238 29.7643 24.87 29.9083 23 30.9703V11.4783ZM22 9.67027C20.03 7.97627 17.174 7.72427 14.574 7.98427C11.546 8.29027 8.49 9.32827 6.586 10.1943C6.4113 10.2737 6.26315 10.4018 6.15924 10.5631C6.05533 10.7245 6.00005 10.9123 6 11.1043V35.1043C6.00005 35.2716 6.04207 35.4362 6.12223 35.5831C6.20239 35.73 6.31812 35.8544 6.45882 35.9449C6.59952 36.0355 6.76069 36.0892 6.92757 36.1014C7.09444 36.1135 7.2617 36.0835 7.414 36.0143C9.178 35.2143 12.02 34.2523 14.774 33.9743C17.592 33.6903 19.954 34.1483 21.22 35.7283C21.3137 35.8451 21.4324 35.9393 21.5674 36.0041C21.7024 36.0689 21.8503 36.1025 22 36.1025C22.1497 36.1025 22.2976 36.0689 22.4326 36.0041C22.5676 35.9393 22.6863 35.8451 22.78 35.7283C24.046 34.1483 26.408 33.6903 29.224 33.9743C31.98 34.2523 34.824 35.2143 36.586 36.0143C36.7383 36.0835 36.9056 36.1135 37.0724 36.1014C37.2393 36.0892 37.4005 36.0355 37.5412 35.9449C37.6819 35.8544 37.7976 35.73 37.8778 35.5831C37.9579 35.4362 38 35.2716 38 35.1043V11.1043C37.9999 10.9123 37.9447 10.7245 37.8408 10.5631C37.7368 10.4018 37.5887 10.2737 37.414 10.1943C35.51 9.32827 32.454 8.29027 29.426 7.98427C26.826 7.72227 23.97 7.97627 22 9.67027Z" fill="white"/>
</svg>
